# xmcd
#
# Track frame offsets:
#	180
#	13095
#	34016
#	63157
#	83371
#	104386
#	129431
#	148335
#	163393
#	187690
#
# Disc length: 2703 seconds
#
# Revision: 0
# Processed by: cddbd v1.5.2PL0 Copyright (c) Steve Scherf et al.
# Submitted via: EasyCDDAExtractor 10.0.6.1
#
DISCID=7c0a8d0a
DTITLE=Greyhound blues band - Doggone blues "live at the lost horizon"
DYEAR=1900
DGENRE=
TTITLE0=Streets are wild
TTITLE1=Lightning Bug
TTITLE2=Walking Days
TTITLE3=Bar room blues
TTITLE4=Last night
TTITLE5=Bag of gold blues
TTITLE6=Think it's desire
TTITLE7=Gee i wish
TTITLE8=As years go passing by
TTITLE9=Scratch my back
EXTD=
EXTT0=
EXTT1=
EXTT2=
EXTT3=
EXTT4=
EXTT5=
EXTT6=
EXTT7=
EXTT8=
EXTT9=
PLAYORDER=
